{
	"patcher" : 	{
		"fileversion" : 1,
		"rect" : [ 165.0, 170.0, 1248.0, 704.0 ],
		"bglocked" : 0,
		"defrect" : [ 165.0, 170.0, 1248.0, 704.0 ],
		"openrect" : [ 0.0, 0.0, 0.0, 0.0 ],
		"openinpresentation" : 1,
		"default_fontsize" : 10.0,
		"default_fontface" : 0,
		"default_fontname" : "Verdana",
		"gridonopen" : 0,
		"gridsize" : [ 5.0, 5.0 ],
		"gridsnaponopen" : 0,
		"toolbarvisible" : 1,
		"boxanimatetime" : 200,
		"imprint" : 0,
		"enablehscroll" : 1,
		"enablevscroll" : 1,
		"devicewidth" : 0.0,
		"boxes" : [ 			{
				"box" : 				{
					"fontname" : "Verdana",
					"fontsize" : 10.0,
					"id" : "obj-79",
					"maxclass" : "newobj",
					"numinlets" : 3,
					"numoutlets" : 1,
					"outlettype" : [ "signal" ],
					"patching_rect" : [ 90.0, 375.0, 106.0, 19.0 ],
					"text" : "jalg.shcheb~"
				}

			}
, 			{
				"box" : 				{
					"bgcolor" : [ 1.0, 1.0, 1.0, 0.0 ],
					"bordercolor" : [ 0.501961, 0.501961, 0.501961, 0.0 ],
					"fontface" : 1,
					"fontname" : "Arial",
					"fontsize" : 10.0,
					"id" : "obj-56",
					"maxclass" : "number",
					"maximum" : 0,
					"minimum" : -60,
					"numinlets" : 1,
					"numoutlets" : 2,
					"outlettype" : [ "int", "bang" ],
					"patching_rect" : [ 860.0, 603.0, 48.0, 18.0 ],
					"presentation" : 1,
					"presentation_rect" : [ 267.0, 118.367371, 24.0, 18.0 ],
					"textcolor" : [ 0.8, 0.8, 0.8, 1.0 ],
					"triangle" : 0
				}

			}
, 			{
				"box" : 				{
					"fontname" : "Verdana",
					"fontsize" : 10.0,
					"id" : "obj-57",
					"maxclass" : "message",
					"numinlets" : 2,
					"numoutlets" : 1,
					"outlettype" : [ "" ],
					"patching_rect" : [ 611.0, 675.0, 52.0, 17.0 ],
					"text" : "set 1 $1"
				}

			}
, 			{
				"box" : 				{
					"fontname" : "Verdana",
					"fontsize" : 10.0,
					"id" : "obj-58",
					"maxclass" : "newobj",
					"numinlets" : 1,
					"numoutlets" : 2,
					"outlettype" : [ "", "" ],
					"patching_rect" : [ 611.0, 653.0, 56.0, 19.0 ],
					"text" : "route set"
				}

			}
, 			{
				"box" : 				{
					"bgcolor" : [ 0.14902, 0.14902, 0.14902, 1.0 ],
					"bordercolor" : [ 0.2, 0.2, 0.2, 1.0 ],
					"contdata" : 1,
					"ghostbar" : 50,
					"id" : "obj-59",
					"maxclass" : "multislider",
					"numinlets" : 1,
					"numoutlets" : 2,
					"orientation" : 0,
					"outlettype" : [ "", "" ],
					"patching_rect" : [ 672.0, 605.0, 153.0, 10.0 ],
					"presentation" : 1,
					"presentation_rect" : [ 42.0, 121.367371, 223.0, 10.0 ],
					"setminmax" : [ -60.0, 0.0 ],
					"settype" : 0,
					"slidercolor" : [ 0.901961, 0.560784, 0.05098, 1.0 ]
				}

			}
, 			{
				"box" : 				{
					"fontface" : 1,
					"fontname" : "Arial",
					"fontsize" : 10.0,
					"frgb" : [ 0.901961, 0.901961, 0.901961, 1.0 ],
					"id" : "obj-60",
					"maxclass" : "comment",
					"numinlets" : 1,
					"numoutlets" : 0,
					"patching_rect" : [ 611.0, 601.0, 68.0, 18.0 ],
					"presentation" : 1,
					"presentation_rect" : [ 14.0, 116.928589, 29.0, 18.0 ],
					"text" : "P7 :",
					"textcolor" : [ 0.901961, 0.901961, 0.901961, 1.0 ]
				}

			}
, 			{
				"box" : 				{
					"bgcolor" : [ 1.0, 1.0, 1.0, 0.0 ],
					"bordercolor" : [ 0.501961, 0.501961, 0.501961, 0.0 ],
					"fontface" : 1,
					"fontname" : "Arial",
					"fontsize" : 10.0,
					"id" : "obj-48",
					"maxclass" : "number",
					"maximum" : 0,
					"minimum" : -60,
					"numinlets" : 1,
					"numoutlets" : 2,
					"outlettype" : [ "int", "bang" ],
					"patching_rect" : [ 850.0, 480.0, 48.0, 18.0 ],
					"presentation" : 1,
					"presentation_rect" : [ 267.0, 99.010315, 24.0, 18.0 ],
					"textcolor" : [ 0.8, 0.8, 0.8, 1.0 ],
					"triangle" : 0
				}

			}
, 			{
				"box" : 				{
					"fontname" : "Verdana",
					"fontsize" : 10.0,
					"id" : "obj-49",
					"maxclass" : "message",
					"numinlets" : 2,
					"numoutlets" : 1,
					"outlettype" : [ "" ],
					"patching_rect" : [ 609.0, 565.0, 52.0, 17.0 ],
					"text" : "set 1 $1"
				}

			}
, 			{
				"box" : 				{
					"fontname" : "Verdana",
					"fontsize" : 10.0,
					"id" : "obj-50",
					"maxclass" : "newobj",
					"numinlets" : 1,
					"numoutlets" : 2,
					"outlettype" : [ "", "" ],
					"patching_rect" : [ 609.0, 540.0, 56.0, 19.0 ],
					"text" : "route set"
				}

			}
, 			{
				"box" : 				{
					"bgcolor" : [ 0.14902, 0.14902, 0.14902, 1.0 ],
					"bordercolor" : [ 0.2, 0.2, 0.2, 1.0 ],
					"contdata" : 1,
					"ghostbar" : 50,
					"id" : "obj-51",
					"maxclass" : "multislider",
					"numinlets" : 1,
					"numoutlets" : 2,
					"orientation" : 0,
					"outlettype" : [ "", "" ],
					"patching_rect" : [ 670.0, 484.0, 153.0, 10.0 ],
					"presentation" : 1,
					"presentation_rect" : [ 42.0, 102.010315, 223.0, 10.0 ],
					"setminmax" : [ -60.0, 0.0 ],
					"settype" : 0,
					"slidercolor" : [ 0.901961, 0.560784, 0.05098, 1.0 ]
				}

			}
, 			{
				"box" : 				{
					"fontface" : 1,
					"fontname" : "Arial",
					"fontsize" : 10.0,
					"frgb" : [ 0.901961, 0.901961, 0.901961, 1.0 ],
					"id" : "obj-55",
					"maxclass" : "comment",
					"numinlets" : 1,
					"numoutlets" : 0,
					"patching_rect" : [ 609.0, 480.0, 68.0, 18.0 ],
					"presentation" : 1,
					"presentation_rect" : [ 14.0, 97.571564, 29.0, 18.0 ],
					"text" : "P5 :",
					"textcolor" : [ 0.901961, 0.901961, 0.901961, 1.0 ]
				}

			}
, 			{
				"box" : 				{
					"bgcolor" : [ 1.0, 1.0, 1.0, 0.0 ],
					"bordercolor" : [ 0.501961, 0.501961, 0.501961, 0.0 ],
					"fontface" : 1,
					"fontname" : "Arial",
					"fontsize" : 10.0,
					"id" : "obj-28",
					"maxclass" : "number",
					"maximum" : 0,
					"minimum" : -60,
					"numinlets" : 1,
					"numoutlets" : 2,
					"outlettype" : [ "int", "bang" ],
					"patching_rect" : [ 835.0, 365.0, 48.0, 18.0 ],
					"presentation" : 1,
					"presentation_rect" : [ 267.0, 80.673645, 24.0, 18.0 ],
					"textcolor" : [ 0.8, 0.8, 0.8, 1.0 ],
					"triangle" : 0
				}

			}
, 			{
				"box" : 				{
					"fontname" : "Verdana",
					"fontsize" : 10.0,
					"id" : "obj-29",
					"maxclass" : "message",
					"numinlets" : 2,
					"numoutlets" : 1,
					"outlettype" : [ "" ],
					"patching_rect" : [ 609.0, 452.0, 52.0, 17.0 ],
					"text" : "set 1 $1"
				}

			}
, 			{
				"box" : 				{
					"fontname" : "Verdana",
					"fontsize" : 10.0,
					"id" : "obj-33",
					"maxclass" : "newobj",
					"numinlets" : 1,
					"numoutlets" : 2,
					"outlettype" : [ "", "" ],
					"patching_rect" : [ 609.0, 425.0, 56.0, 19.0 ],
					"text" : "route set"
				}

			}
, 			{
				"box" : 				{
					"bgcolor" : [ 0.14902, 0.14902, 0.14902, 1.0 ],
					"bordercolor" : [ 0.2, 0.2, 0.2, 1.0 ],
					"contdata" : 1,
					"ghostbar" : 50,
					"id" : "obj-36",
					"maxclass" : "multislider",
					"numinlets" : 1,
					"numoutlets" : 2,
					"orientation" : 0,
					"outlettype" : [ "", "" ],
					"patching_rect" : [ 670.0, 374.0, 153.0, 10.0 ],
					"presentation" : 1,
					"presentation_rect" : [ 42.0, 83.673645, 223.0, 10.0 ],
					"setminmax" : [ -60.0, 0.0 ],
					"settype" : 0,
					"slidercolor" : [ 0.901961, 0.560784, 0.05098, 1.0 ]
				}

			}
, 			{
				"box" : 				{
					"fontface" : 1,
					"fontname" : "Arial",
					"fontsize" : 10.0,
					"frgb" : [ 0.901961, 0.901961, 0.901961, 1.0 ],
					"id" : "obj-38",
					"maxclass" : "comment",
					"numinlets" : 1,
					"numoutlets" : 0,
					"patching_rect" : [ 609.0, 370.0, 68.0, 18.0 ],
					"presentation" : 1,
					"presentation_rect" : [ 14.0, 79.234863, 29.0, 18.0 ],
					"text" : "P4 :",
					"textcolor" : [ 0.901961, 0.901961, 0.901961, 1.0 ]
				}

			}
, 			{
				"box" : 				{
					"bgcolor" : [ 1.0, 1.0, 1.0, 0.0 ],
					"bordercolor" : [ 0.501961, 0.501961, 0.501961, 0.0 ],
					"fontface" : 1,
					"fontname" : "Arial",
					"fontsize" : 10.0,
					"id" : "obj-22",
					"maxclass" : "number",
					"maximum" : 0,
					"minimum" : -60,
					"numinlets" : 1,
					"numoutlets" : 2,
					"outlettype" : [ "int", "bang" ],
					"patching_rect" : [ 845.0, 255.0, 48.0, 18.0 ],
					"presentation" : 1,
					"presentation_rect" : [ 267.0, 61.530823, 24.0, 18.0 ],
					"textcolor" : [ 0.8, 0.8, 0.8, 1.0 ],
					"triangle" : 0
				}

			}
, 			{
				"box" : 				{
					"fontname" : "Verdana",
					"fontsize" : 10.0,
					"id" : "obj-23",
					"maxclass" : "message",
					"numinlets" : 2,
					"numoutlets" : 1,
					"outlettype" : [ "" ],
					"patching_rect" : [ 609.0, 340.0, 52.0, 17.0 ],
					"text" : "set 1 $1"
				}

			}
, 			{
				"box" : 				{
					"fontname" : "Verdana",
					"fontsize" : 10.0,
					"id" : "obj-24",
					"maxclass" : "newobj",
					"numinlets" : 1,
					"numoutlets" : 2,
					"outlettype" : [ "", "" ],
					"patching_rect" : [ 609.0, 313.0, 56.0, 19.0 ],
					"text" : "route set"
				}

			}
, 			{
				"box" : 				{
					"bgcolor" : [ 0.14902, 0.14902, 0.14902, 1.0 ],
					"bordercolor" : [ 0.2, 0.2, 0.2, 1.0 ],
					"contdata" : 1,
					"ghostbar" : 50,
					"id" : "obj-25",
					"maxclass" : "multislider",
					"numinlets" : 1,
					"numoutlets" : 2,
					"orientation" : 0,
					"outlettype" : [ "", "" ],
					"patching_rect" : [ 670.0, 259.0, 153.0, 10.0 ],
					"presentation" : 1,
					"presentation_rect" : [ 42.0, 64.530823, 223.0, 10.0 ],
					"setminmax" : [ -60.0, 0.0 ],
					"settype" : 0,
					"slidercolor" : [ 0.901961, 0.560784, 0.05098, 1.0 ]
				}

			}
, 			{
				"box" : 				{
					"fontface" : 1,
					"fontname" : "Arial",
					"fontsize" : 10.0,
					"frgb" : [ 0.901961, 0.901961, 0.901961, 1.0 ],
					"id" : "obj-27",
					"maxclass" : "comment",
					"numinlets" : 1,
					"numoutlets" : 0,
					"patching_rect" : [ 609.0, 255.0, 68.0, 18.0 ],
					"presentation" : 1,
					"presentation_rect" : [ 14.0, 60.092056, 29.0, 18.0 ],
					"text" : "P3 :",
					"textcolor" : [ 0.901961, 0.901961, 0.901961, 1.0 ]
				}

			}
, 			{
				"box" : 				{
					"bgcolor" : [ 1.0, 1.0, 1.0, 0.0 ],
					"bordercolor" : [ 0.501961, 0.501961, 0.501961, 0.0 ],
					"fontface" : 1,
					"fontname" : "Arial",
					"fontsize" : 10.0,
					"id" : "obj-17",
					"maxclass" : "number",
					"maximum" : 0,
					"minimum" : -60,
					"numinlets" : 1,
					"numoutlets" : 2,
					"outlettype" : [ "int", "bang" ],
					"patching_rect" : [ 853.0, 132.0, 48.0, 18.0 ],
					"presentation" : 1,
					"presentation_rect" : [ 267.0, 42.347198, 24.0, 18.0 ],
					"textcolor" : [ 0.8, 0.8, 0.8, 1.0 ],
					"triangle" : 0
				}

			}
, 			{
				"box" : 				{
					"fontname" : "Verdana",
					"fontsize" : 10.0,
					"id" : "obj-18",
					"maxclass" : "message",
					"numinlets" : 2,
					"numoutlets" : 1,
					"outlettype" : [ "" ],
					"patching_rect" : [ 609.0, 225.0, 52.0, 17.0 ],
					"text" : "set 1 $1"
				}

			}
, 			{
				"box" : 				{
					"fontname" : "Verdana",
					"fontsize" : 10.0,
					"id" : "obj-19",
					"maxclass" : "newobj",
					"numinlets" : 1,
					"numoutlets" : 2,
					"outlettype" : [ "", "" ],
					"patching_rect" : [ 609.0, 198.0, 56.0, 19.0 ],
					"text" : "route set"
				}

			}
, 			{
				"box" : 				{
					"bgcolor" : [ 0.14902, 0.14902, 0.14902, 1.0 ],
					"bordercolor" : [ 0.2, 0.2, 0.2, 1.0 ],
					"contdata" : 1,
					"ghostbar" : 50,
					"id" : "obj-20",
					"maxclass" : "multislider",
					"numinlets" : 1,
					"numoutlets" : 2,
					"orientation" : 0,
					"outlettype" : [ "", "" ],
					"patching_rect" : [ 670.0, 134.0, 153.0, 10.0 ],
					"presentation" : 1,
					"presentation_rect" : [ 42.0, 45.347198, 223.0, 10.0 ],
					"setminmax" : [ -60.0, 0.0 ],
					"settype" : 0,
					"slidercolor" : [ 0.901961, 0.560784, 0.05098, 1.0 ]
				}

			}
, 			{
				"box" : 				{
					"fontface" : 1,
					"fontname" : "Arial",
					"fontsize" : 10.0,
					"frgb" : [ 0.901961, 0.901961, 0.901961, 1.0 ],
					"id" : "obj-21",
					"maxclass" : "comment",
					"numinlets" : 1,
					"numoutlets" : 0,
					"patching_rect" : [ 609.0, 130.0, 68.0, 18.0 ],
					"presentation" : 1,
					"presentation_rect" : [ 14.0, 40.908417, 29.0, 18.0 ],
					"text" : "P2 :",
					"textcolor" : [ 0.901961, 0.901961, 0.901961, 1.0 ]
				}

			}
, 			{
				"box" : 				{
					"bgcolor" : [ 1.0, 1.0, 1.0, 0.0 ],
					"bordercolor" : [ 0.501961, 0.501961, 0.501961, 0.0 ],
					"fontface" : 1,
					"fontname" : "Arial",
					"fontsize" : 10.0,
					"id" : "obj-68",
					"maxclass" : "number",
					"maximum" : 0,
					"minimum" : -60,
					"numinlets" : 1,
					"numoutlets" : 2,
					"outlettype" : [ "int", "bang" ],
					"patching_rect" : [ 852.0, 8.0, 48.0, 18.0 ],
					"presentation" : 1,
					"presentation_rect" : [ 267.0, 23.909927, 24.0, 18.0 ],
					"textcolor" : [ 0.8, 0.8, 0.8, 1.0 ],
					"triangle" : 0
				}

			}
, 			{
				"box" : 				{
					"fontname" : "Verdana",
					"fontsize" : 10.0,
					"id" : "obj-61",
					"maxclass" : "message",
					"numinlets" : 2,
					"numoutlets" : 1,
					"outlettype" : [ "" ],
					"patching_rect" : [ 609.0, 101.0, 52.0, 17.0 ],
					"text" : "set 1 $1"
				}

			}
, 			{
				"box" : 				{
					"fontname" : "Verdana",
					"fontsize" : 10.0,
					"id" : "obj-62",
					"maxclass" : "newobj",
					"numinlets" : 1,
					"numoutlets" : 2,
					"outlettype" : [ "", "" ],
					"patching_rect" : [ 609.0, 74.0, 56.0, 19.0 ],
					"text" : "route set"
				}

			}
, 			{
				"box" : 				{
					"bgcolor" : [ 0.14902, 0.14902, 0.14902, 1.0 ],
					"bordercolor" : [ 0.2, 0.2, 0.2, 1.0 ],
					"contdata" : 1,
					"ghostbar" : 50,
					"id" : "obj-63",
					"maxclass" : "multislider",
					"numinlets" : 1,
					"numoutlets" : 2,
					"orientation" : 0,
					"outlettype" : [ "", "" ],
					"patching_rect" : [ 670.0, 10.0, 153.0, 10.0 ],
					"presentation" : 1,
					"presentation_rect" : [ 42.0, 26.909927, 223.0, 10.0 ],
					"setminmax" : [ -60.0, 0.0 ],
					"settype" : 0,
					"slidercolor" : [ 0.901961, 0.560784, 0.05098, 1.0 ]
				}

			}
, 			{
				"box" : 				{
					"fontface" : 1,
					"fontname" : "Arial",
					"fontsize" : 10.0,
					"frgb" : [ 0.901961, 0.901961, 0.901961, 1.0 ],
					"id" : "obj-64",
					"maxclass" : "comment",
					"numinlets" : 1,
					"numoutlets" : 0,
					"patching_rect" : [ 609.0, 6.0, 68.0, 18.0 ],
					"presentation" : 1,
					"presentation_rect" : [ 14.0, 22.471161, 29.0, 18.0 ],
					"text" : "P1 :",
					"textcolor" : [ 0.901961, 0.901961, 0.901961, 1.0 ]
				}

			}
, 			{
				"box" : 				{
					"color" : [ 0.87451, 0.25098, 0.717647, 1.0 ],
					"fontname" : "Verdana",
					"fontsize" : 10.0,
					"id" : "obj-13",
					"linecount" : 2,
					"maxclass" : "newobj",
					"numinlets" : 1,
					"numoutlets" : 3,
					"outlettype" : [ "", "", "" ],
					"patching_rect" : [ 611.0, 621.0, 586.0, 31.0 ],
					"text" : "jcom.parameter polynomial/p7 @type integer @range/bounds -60. 0. @range/clipmode both @ramp/drive queue @ramp/function power @dataspace gain @dataspace/unit/native dB @description Polynomial",
					"varname" : "polynomial/p1[4]"
				}

			}
, 			{
				"box" : 				{
					"color" : [ 0.87451, 0.25098, 0.717647, 1.0 ],
					"fontname" : "Verdana",
					"fontsize" : 10.0,
					"id" : "obj-15",
					"linecount" : 2,
					"maxclass" : "newobj",
					"numinlets" : 1,
					"numoutlets" : 3,
					"outlettype" : [ "", "", "" ],
					"patching_rect" : [ 609.0, 505.0, 586.0, 31.0 ],
					"text" : "jcom.parameter polynomial/p5 @type integer @range/bounds -60. 0. @range/clipmode both @ramp/drive queue @ramp/function power @dataspace gain @dataspace/unit/native dB @description Polynomial",
					"varname" : "polynomial/p1[6]"
				}

			}
, 			{
				"box" : 				{
					"color" : [ 0.87451, 0.25098, 0.717647, 1.0 ],
					"fontname" : "Verdana",
					"fontsize" : 10.0,
					"id" : "obj-11",
					"linecount" : 2,
					"maxclass" : "newobj",
					"numinlets" : 1,
					"numoutlets" : 3,
					"outlettype" : [ "", "", "" ],
					"patching_rect" : [ 609.0, 390.0, 586.0, 31.0 ],
					"text" : "jcom.parameter polynomial/p4 @type integer @range/bounds -60. 0. @range/clipmode both @ramp/drive queue @ramp/function power @dataspace gain @dataspace/unit/native dB @description Polynomial",
					"varname" : "polynomial/p1[2]"
				}

			}
, 			{
				"box" : 				{
					"color" : [ 0.87451, 0.25098, 0.717647, 1.0 ],
					"fontname" : "Verdana",
					"fontsize" : 10.0,
					"id" : "obj-12",
					"linecount" : 2,
					"maxclass" : "newobj",
					"numinlets" : 1,
					"numoutlets" : 3,
					"outlettype" : [ "", "", "" ],
					"patching_rect" : [ 609.0, 275.0, 586.0, 31.0 ],
					"text" : "jcom.parameter polynomial/p3 @type integer @range/bounds -60. 0. @range/clipmode both @ramp/drive queue @ramp/function power @dataspace gain @dataspace/unit/native dB @description Polynomial",
					"varname" : "polynomial/p1[3]"
				}

			}
, 			{
				"box" : 				{
					"color" : [ 0.87451, 0.25098, 0.717647, 1.0 ],
					"fontname" : "Verdana",
					"fontsize" : 10.0,
					"id" : "obj-10",
					"linecount" : 2,
					"maxclass" : "newobj",
					"numinlets" : 1,
					"numoutlets" : 3,
					"outlettype" : [ "", "", "" ],
					"patching_rect" : [ 609.0, 155.0, 586.0, 31.0 ],
					"text" : "jcom.parameter polynomial/p2 @type integer @range/bounds -60. 0. @range/clipmode both @ramp/drive queue @ramp/function power @dataspace gain @dataspace/unit/native dB @description Polynomial",
					"varname" : "polynomial/p1[1]"
				}

			}
, 			{
				"box" : 				{
					"fontname" : "Verdana",
					"fontsize" : 10.0,
					"id" : "obj-41",
					"maxclass" : "newobj",
					"numinlets" : 0,
					"numoutlets" : 1,
					"outlettype" : [ "" ],
					"patching_rect" : [ 385.0, 316.0, 121.0, 19.0 ],
					"text" : "jcom.meter_receive 2"
				}

			}
, 			{
				"box" : 				{
					"fontname" : "Verdana",
					"fontsize" : 10.0,
					"id" : "obj-52",
					"maxclass" : "newobj",
					"numinlets" : 0,
					"numoutlets" : 1,
					"outlettype" : [ "" ],
					"patching_rect" : [ 258.0, 316.0, 121.0, 19.0 ],
					"text" : "jcom.meter_receive 1"
				}

			}
, 			{
				"box" : 				{
					"id" : "obj-53",
					"maxclass" : "jcom.meter~",
					"numinlets" : 1,
					"numoutlets" : 1,
					"outlettype" : [ "" ],
					"patching_rect" : [ 381.0, 343.0, 80.0, 4.0 ],
					"presentation" : 1,
					"presentation_rect" : [ 166.0, 10.0, 80.0, 4.0 ]
				}

			}
, 			{
				"box" : 				{
					"id" : "obj-54",
					"maxclass" : "jcom.meter~",
					"numinlets" : 1,
					"numoutlets" : 1,
					"outlettype" : [ "" ],
					"patching_rect" : [ 258.0, 344.0, 80.0, 4.0 ],
					"presentation" : 1,
					"presentation_rect" : [ 166.0, 5.0, 80.0, 4.0 ]
				}

			}
, 			{
				"box" : 				{
					"bgcolor" : [ 0.2, 0.2, 0.2, 1.0 ],
					"bordercolor" : [ 0.2, 0.2, 0.2, 1.0 ],
					"fontface" : 3,
					"fontname" : "Arial",
					"has_gain" : 1,
					"has_meters" : 1,
					"has_mix" : 1,
					"has_mute" : 1,
					"headercolor" : [ 0.14902, 0.14902, 0.14902, 1.0 ],
					"id" : "obj-37",
					"maxclass" : "jcom.ui",
					"numinlets" : 1,
					"numoutlets" : 1,
					"outlettype" : [ "" ],
					"patching_rect" : [ 2.0, 0.0, 300.0, 70.0 ],
					"prefix" : "audio",
					"presentation" : 1,
					"presentation_rect" : [ 0.0, 0.0, 300.0, 140.0 ],
					"text" : "/editing_this_module",
					"textcolor" : [ 1.0, 1.0, 1.0, 1.0 ]
				}

			}
, 			{
				"box" : 				{
					"fontname" : "Verdana",
					"fontsize" : 10.0,
					"id" : "obj-7",
					"maxclass" : "newobj",
					"numinlets" : 1,
					"numoutlets" : 2,
					"outlettype" : [ "signal", "" ],
					"patching_rect" : [ 90.0, 410.0, 74.0, 19.0 ],
					"text" : "jcom.out~ 1"
				}

			}
, 			{
				"box" : 				{
					"fontname" : "Verdana",
					"fontsize" : 10.0,
					"id" : "obj-8",
					"maxclass" : "newobj",
					"numinlets" : 2,
					"numoutlets" : 4,
					"outlettype" : [ "signal", "signal", "", "" ],
					"patching_rect" : [ 90.0, 335.0, 149.0, 19.0 ],
					"text" : "jcom.in~ 2"
				}

			}
, 			{
				"box" : 				{
					"fontname" : "Verdana",
					"fontsize" : 10.0,
					"id" : "obj-30",
					"maxclass" : "newobj",
					"numinlets" : 1,
					"numoutlets" : 2,
					"outlettype" : [ "", "" ],
					"patching_rect" : [ 14.0, 210.0, 421.0, 19.0 ],
					"text" : "jcom.hub @module_type audio @description \"This module doesn't do much yet\"",
					"varname" : "jcom.hub"
				}

			}
, 			{
				"box" : 				{
					"comment" : "",
					"id" : "obj-32",
					"maxclass" : "inlet",
					"numinlets" : 0,
					"numoutlets" : 1,
					"outlettype" : [ "" ],
					"patching_rect" : [ 14.0, 151.0, 24.0, 24.0 ]
				}

			}
, 			{
				"box" : 				{
					"comment" : "",
					"id" : "obj-34",
					"maxclass" : "inlet",
					"numinlets" : 0,
					"numoutlets" : 1,
					"outlettype" : [ "" ],
					"patching_rect" : [ 90.0, 305.0, 24.0, 24.0 ]
				}

			}
, 			{
				"box" : 				{
					"comment" : "",
					"id" : "obj-35",
					"maxclass" : "outlet",
					"numinlets" : 1,
					"numoutlets" : 0,
					"patching_rect" : [ 90.0, 440.0, 24.0, 24.0 ]
				}

			}
, 			{
				"box" : 				{
					"comment" : "",
					"id" : "obj-39",
					"maxclass" : "inlet",
					"numinlets" : 0,
					"numoutlets" : 1,
					"outlettype" : [ "" ],
					"patching_rect" : [ 220.0, 305.0, 24.0, 24.0 ]
				}

			}
, 			{
				"box" : 				{
					"comment" : "",
					"id" : "obj-45",
					"maxclass" : "outlet",
					"numinlets" : 1,
					"numoutlets" : 0,
					"patching_rect" : [ 14.0, 250.0, 24.0, 24.0 ]
				}

			}
, 			{
				"box" : 				{
					"comment" : "",
					"id" : "obj-46",
					"maxclass" : "outlet",
					"numinlets" : 1,
					"numoutlets" : 0,
					"patching_rect" : [ 145.0, 440.0, 24.0, 24.0 ]
				}

			}
, 			{
				"box" : 				{
					"color" : [ 0.87451, 0.25098, 0.717647, 1.0 ],
					"fontname" : "Verdana",
					"fontsize" : 10.0,
					"id" : "obj-9",
					"linecount" : 2,
					"maxclass" : "newobj",
					"numinlets" : 1,
					"numoutlets" : 3,
					"outlettype" : [ "", "", "" ],
					"patching_rect" : [ 609.0, 35.0, 586.0, 31.0 ],
					"text" : "jcom.parameter polynomial/p1 @type integer @range/bounds -60. 0. @range/clipmode both @ramp/drive queue @ramp/function power @dataspace gain @dataspace/unit/native dB @description Polynomial",
					"varname" : "polynomial/p1"
				}

			}
 ],
		"lines" : [ 			{
				"patchline" : 				{
					"destination" : [ "obj-19", 0 ],
					"hidden" : 0,
					"midpoints" : [  ],
					"source" : [ "obj-10", 0 ]
				}

			}
, 			{
				"patchline" : 				{
					"destination" : [ "obj-33", 0 ],
					"hidden" : 0,
					"midpoints" : [  ],
					"source" : [ "obj-11", 0 ]
				}

			}
, 			{
				"patchline" : 				{
					"destination" : [ "obj-24", 0 ],
					"hidden" : 0,
					"midpoints" : [  ],
					"source" : [ "obj-12", 0 ]
				}

			}
, 			{
				"patchline" : 				{
					"destination" : [ "obj-58", 0 ],
					"hidden" : 0,
					"midpoints" : [  ],
					"source" : [ "obj-13", 0 ]
				}

			}
, 			{
				"patchline" : 				{
					"destination" : [ "obj-50", 0 ],
					"hidden" : 0,
					"midpoints" : [  ],
					"source" : [ "obj-15", 0 ]
				}

			}
, 			{
				"patchline" : 				{
					"destination" : [ "obj-10", 0 ],
					"hidden" : 0,
					"midpoints" : [  ],
					"source" : [ "obj-17", 0 ]
				}

			}
, 			{
				"patchline" : 				{
					"destination" : [ "obj-18", 0 ],
					"hidden" : 0,
					"midpoints" : [  ],
					"source" : [ "obj-17", 0 ]
				}

			}
, 			{
				"patchline" : 				{
					"destination" : [ "obj-20", 0 ],
					"hidden" : 0,
					"midpoints" : [  ],
					"source" : [ "obj-18", 0 ]
				}

			}
, 			{
				"patchline" : 				{
					"destination" : [ "obj-18", 0 ],
					"hidden" : 0,
					"midpoints" : [  ],
					"source" : [ "obj-19", 0 ]
				}

			}
, 			{
				"patchline" : 				{
					"destination" : [ "obj-17", 0 ],
					"hidden" : 0,
					"midpoints" : [  ],
					"source" : [ "obj-20", 0 ]
				}

			}
, 			{
				"patchline" : 				{
					"destination" : [ "obj-12", 0 ],
					"hidden" : 0,
					"midpoints" : [  ],
					"source" : [ "obj-22", 0 ]
				}

			}
, 			{
				"patchline" : 				{
					"destination" : [ "obj-23", 0 ],
					"hidden" : 0,
					"midpoints" : [  ],
					"source" : [ "obj-22", 0 ]
				}

			}
, 			{
				"patchline" : 				{
					"destination" : [ "obj-25", 0 ],
					"hidden" : 0,
					"midpoints" : [  ],
					"source" : [ "obj-23", 0 ]
				}

			}
, 			{
				"patchline" : 				{
					"destination" : [ "obj-23", 0 ],
					"hidden" : 0,
					"midpoints" : [  ],
					"source" : [ "obj-24", 0 ]
				}

			}
, 			{
				"patchline" : 				{
					"destination" : [ "obj-22", 0 ],
					"hidden" : 0,
					"midpoints" : [  ],
					"source" : [ "obj-25", 0 ]
				}

			}
, 			{
				"patchline" : 				{
					"destination" : [ "obj-11", 0 ],
					"hidden" : 0,
					"midpoints" : [  ],
					"source" : [ "obj-28", 0 ]
				}

			}
, 			{
				"patchline" : 				{
					"destination" : [ "obj-29", 0 ],
					"hidden" : 0,
					"midpoints" : [  ],
					"source" : [ "obj-28", 0 ]
				}

			}
, 			{
				"patchline" : 				{
					"destination" : [ "obj-36", 0 ],
					"hidden" : 0,
					"midpoints" : [  ],
					"source" : [ "obj-29", 0 ]
				}

			}
, 			{
				"patchline" : 				{
					"destination" : [ "obj-45", 0 ],
					"hidden" : 0,
					"midpoints" : [  ],
					"source" : [ "obj-30", 0 ]
				}

			}
, 			{
				"patchline" : 				{
					"destination" : [ "obj-30", 0 ],
					"hidden" : 0,
					"midpoints" : [  ],
					"source" : [ "obj-32", 0 ]
				}

			}
, 			{
				"patchline" : 				{
					"destination" : [ "obj-29", 0 ],
					"hidden" : 0,
					"midpoints" : [  ],
					"source" : [ "obj-33", 0 ]
				}

			}
, 			{
				"patchline" : 				{
					"destination" : [ "obj-8", 0 ],
					"hidden" : 0,
					"midpoints" : [  ],
					"source" : [ "obj-34", 0 ]
				}

			}
, 			{
				"patchline" : 				{
					"destination" : [ "obj-28", 0 ],
					"hidden" : 0,
					"midpoints" : [  ],
					"source" : [ "obj-36", 0 ]
				}

			}
, 			{
				"patchline" : 				{
					"destination" : [ "obj-8", 1 ],
					"hidden" : 0,
					"midpoints" : [  ],
					"source" : [ "obj-39", 0 ]
				}

			}
, 			{
				"patchline" : 				{
					"destination" : [ "obj-53", 0 ],
					"hidden" : 0,
					"midpoints" : [  ],
					"source" : [ "obj-41", 0 ]
				}

			}
, 			{
				"patchline" : 				{
					"destination" : [ "obj-15", 0 ],
					"hidden" : 0,
					"midpoints" : [  ],
					"source" : [ "obj-48", 0 ]
				}

			}
, 			{
				"patchline" : 				{
					"destination" : [ "obj-49", 0 ],
					"hidden" : 0,
					"midpoints" : [  ],
					"source" : [ "obj-48", 0 ]
				}

			}
, 			{
				"patchline" : 				{
					"destination" : [ "obj-51", 0 ],
					"hidden" : 0,
					"midpoints" : [  ],
					"source" : [ "obj-49", 0 ]
				}

			}
, 			{
				"patchline" : 				{
					"destination" : [ "obj-49", 0 ],
					"hidden" : 0,
					"midpoints" : [  ],
					"source" : [ "obj-50", 0 ]
				}

			}
, 			{
				"patchline" : 				{
					"destination" : [ "obj-48", 0 ],
					"hidden" : 0,
					"midpoints" : [  ],
					"source" : [ "obj-51", 0 ]
				}

			}
, 			{
				"patchline" : 				{
					"destination" : [ "obj-54", 0 ],
					"hidden" : 0,
					"midpoints" : [  ],
					"source" : [ "obj-52", 0 ]
				}

			}
, 			{
				"patchline" : 				{
					"destination" : [ "obj-13", 0 ],
					"hidden" : 0,
					"midpoints" : [  ],
					"source" : [ "obj-56", 0 ]
				}

			}
, 			{
				"patchline" : 				{
					"destination" : [ "obj-57", 0 ],
					"hidden" : 0,
					"midpoints" : [  ],
					"source" : [ "obj-56", 0 ]
				}

			}
, 			{
				"patchline" : 				{
					"destination" : [ "obj-59", 0 ],
					"hidden" : 0,
					"midpoints" : [  ],
					"source" : [ "obj-57", 0 ]
				}

			}
, 			{
				"patchline" : 				{
					"destination" : [ "obj-57", 0 ],
					"hidden" : 0,
					"midpoints" : [  ],
					"source" : [ "obj-58", 0 ]
				}

			}
, 			{
				"patchline" : 				{
					"destination" : [ "obj-56", 0 ],
					"hidden" : 0,
					"midpoints" : [  ],
					"source" : [ "obj-59", 0 ]
				}

			}
, 			{
				"patchline" : 				{
					"destination" : [ "obj-63", 0 ],
					"hidden" : 0,
					"midpoints" : [  ],
					"source" : [ "obj-61", 0 ]
				}

			}
, 			{
				"patchline" : 				{
					"destination" : [ "obj-61", 0 ],
					"hidden" : 0,
					"midpoints" : [  ],
					"source" : [ "obj-62", 0 ]
				}

			}
, 			{
				"patchline" : 				{
					"destination" : [ "obj-68", 0 ],
					"hidden" : 0,
					"midpoints" : [  ],
					"source" : [ "obj-63", 0 ]
				}

			}
, 			{
				"patchline" : 				{
					"destination" : [ "obj-61", 0 ],
					"hidden" : 0,
					"midpoints" : [  ],
					"source" : [ "obj-68", 0 ]
				}

			}
, 			{
				"patchline" : 				{
					"destination" : [ "obj-9", 0 ],
					"hidden" : 0,
					"midpoints" : [  ],
					"source" : [ "obj-68", 0 ]
				}

			}
, 			{
				"patchline" : 				{
					"destination" : [ "obj-35", 0 ],
					"hidden" : 0,
					"midpoints" : [  ],
					"source" : [ "obj-7", 0 ]
				}

			}
, 			{
				"patchline" : 				{
					"destination" : [ "obj-46", 0 ],
					"hidden" : 0,
					"midpoints" : [  ],
					"source" : [ "obj-7", 1 ]
				}

			}
, 			{
				"patchline" : 				{
					"destination" : [ "obj-7", 0 ],
					"hidden" : 0,
					"midpoints" : [  ],
					"source" : [ "obj-79", 0 ]
				}

			}
, 			{
				"patchline" : 				{
					"destination" : [ "obj-79", 0 ],
					"hidden" : 0,
					"midpoints" : [  ],
					"source" : [ "obj-8", 2 ]
				}

			}
, 			{
				"patchline" : 				{
					"destination" : [ "obj-79", 2 ],
					"hidden" : 0,
					"midpoints" : [  ],
					"source" : [ "obj-8", 1 ]
				}

			}
, 			{
				"patchline" : 				{
					"destination" : [ "obj-79", 1 ],
					"hidden" : 0,
					"midpoints" : [  ],
					"source" : [ "obj-8", 0 ]
				}

			}
, 			{
				"patchline" : 				{
					"destination" : [ "obj-62", 0 ],
					"hidden" : 0,
					"midpoints" : [  ],
					"source" : [ "obj-9", 0 ]
				}

			}
 ]
	}

}
